<?xml version="1.0" encoding="UTF-8" standalone="no"?>
<!-- Created with Inkscape (http://www.inkscape.org/) -->

<svg
   width="512"
   height="512"
   viewBox="0 0 135.46667 135.46667"
   version="1.1"
   id="svg430"
   sodipodi:docname="app_icon_flat.svg"
   inkscape:version="1.2.2 (732a01da63, 2022-12-09)"
   xmlns:inkscape="http://www.inkscape.org/namespaces/inkscape"
   xmlns:sodipodi="http://sodipodi.sourceforge.net/DTD/sodipodi-0.dtd"
   xmlns="http://www.w3.org/2000/svg"
   xmlns:svg="http://www.w3.org/2000/svg">
  <sodipodi:namedview
     id="namedview432"
     pagecolor="#505050"
     bordercolor="#eeeeee"
     borderopacity="1"
     inkscape:showpageshadow="0"
     inkscape:pageopacity="0"
     inkscape:pagecheckerboard="0"
     inkscape:deskcolor="#505050"
     inkscape:document-units="mm"
     showgrid="false"
     inkscape:zoom="1.1131408"
     inkscape:cx="244.80281"
     inkscape:cy="223.69138"
     inkscape:window-width="1920"
     inkscape:window-height="1009"
     inkscape:window-x="1912"
     inkscape:window-y="-8"
     inkscape:window-maximized="1"
     inkscape:current-layer="layer1" />
  <defs
     id="defs427"><inkscape:path-effect
   effect="fillet_chamfer"
   id="path-effect1374"
   is_visible="true"
   lpeversion="1"
   nodesatellites_param="F,0,0,1,0,0,0,1 @ F,0,0,1,0,0,0,1 @ F,0,0,1,0,0,0,1 @ F,0,0,1,0,2.38125,0,1 @ F,0,0,1,0,2.38125,0,1 @ F,0,0,1,0,0,0,1 @ F,0,0,1,0,0,0,1 @ F,0,0,1,0,0,0,1 @ F,0,0,1,0,2.38125,0,1 @ F,0,0,1,0,2.38125,0,1 | F,0,0,1,0,2.38125,0,1 @ F,0,0,1,0,2.38125,0,1 @ F,0,0,1,0,2.38125,0,1 @ F,0,1,1,0,0.79375,0,1 @ F,0,1,1,0,0.79375,0,1 @ F,0,0,1,0,2.38125,0,1 @ F,0,0,1,0,2.38125,0,1 @ F,0,0,1,0,0,0,1 @ F,0,0,1,0,0,0,1 @ F,0,0,1,0,0,0,1 | F,0,0,1,0,2.38125,0,1 @ F,0,0,1,0,2.38125,0,1 @ F,0,0,1,0,2.38125,0,1 @ F,0,0,1,0,2.38125,0,1 @ F,0,0,1,0,2.38125,0,1 @ F,0,0,1,0,2.38125,0,1 @ F,0,0,1,0,2.38125,0,1 @ F,0,0,1,0,2.38125,0,1 | F,0,0,1,0,2.38125,0,1 @ F,0,0,1,0,0,0,1 @ F,0,0,1,0,0,0,1 @ F,0,0,1,0,0,0,1 @ F,0,0,1,0,2.38125,0,1"
   unit="px"
   method="auto"
   mode="F"
   radius="3"
   chamfer_steps="1"
   flexible="false"
   use_knot_distance="true"
   apply_no_radius="true"
   apply_with_radius="true"
   only_selected="true"
   hide_knots="false" />
   </defs>
  <g
     inkscape:label="Layer 1"
     inkscape:groupmode="layer"
     id="layer1">
    <path
       id="path2_0"
       style="clip-rule:evenodd;fill:#ffffff;fill-rule:evenodd;stroke-width:0.0216036;image-rendering:optimizeQuality;shape-rendering:geometricPrecision;text-rendering:geometricPrecision"
       class="fil3"
       d="M 12.849345 19.600354 C 9.2415688 19.600354 6.3251953 22.49522 6.3251953 26.146208 L 6.3034912 108.39132 C 6.3034912 111.89103 8.5503414 114.76463 12.201322 115.11029 L 12.849345 115.15318 L 123.11393 115.15318 C 126.82975 115.15318 129.85461 112.10707 129.85461 108.39132 L 129.85461 26.341028 C 129.85461 22.646841 126.82975 19.600354 123.11393 19.600354 L 12.849345 19.600354 z M 15.484843 27.097054 L 16.565397 27.097054 C 18.564105 27.097054 20.172929 28.705878 20.172929 30.704586 L 20.172929 31.78514 C 20.172929 33.783848 18.564105 35.392672 16.565397 35.392672 L 15.484843 35.392672 C 13.486135 35.392672 11.877311 33.783848 11.877311 31.78514 L 11.877311 30.704586 C 11.877311 28.705878 13.486135 27.097054 15.484843 27.097054 z M 88.181181 27.097054 L 89.261218 27.097054 C 91.259932 27.097054 92.869267 28.705872 92.869267 30.704586 L 92.869267 31.78514 C 92.869267 33.783854 91.259932 35.392672 89.261218 35.392672 L 88.181181 35.392672 C 86.182467 35.392672 84.573132 33.783854 84.573132 31.78514 L 84.573132 30.704586 C 84.573132 28.705872 86.182467 27.097054 88.181181 27.097054 z M 102.91465 27.097054 L 103.9952 27.097054 C 105.99392 27.097054 107.60273 28.705872 107.60273 30.704586 L 107.60273 31.78514 C 107.60273 33.783854 105.99392 35.392672 103.9952 35.392672 L 102.91465 35.392672 C 100.91593 35.392672 99.307117 33.783854 99.307117 31.78514 L 99.307117 30.704586 C 99.307117 28.705872 100.91593 27.097054 102.91465 27.097054 z M 117.64863 27.097054 L 118.72867 27.097054 C 120.72739 27.097054 122.3362 28.705872 122.3362 30.704586 L 122.3362 31.78514 C 122.3362 33.783854 120.72739 35.392672 118.72867 35.392672 L 117.64863 35.392672 C 115.64991 35.392672 114.04058 33.783854 114.04058 31.78514 L 114.04058 30.704586 C 114.04058 28.705872 115.64991 27.097054 117.64863 27.097054 z M 15.657959 40.448177 L 16.370577 40.448177 C 17.687094 40.448177 18.747176 41.507747 18.747176 42.824259 L 18.747176 43.537394 C 18.747176 44.853911 17.687094 45.913477 16.370577 45.913477 L 15.657959 45.913477 C 14.341442 45.913477 13.28136 44.853911 13.28136 43.537394 L 13.28136 42.824259 C 13.28136 41.507747 14.341442 40.448177 15.657959 40.448177 z M 37.412703 41.268799 L 118.16695 41.268799 C 120.47853 41.268799 122.3362 43.126898 122.3362 45.416866 L 122.3362 101.45634 C 122.3362 103.74632 120.47853 105.60441 118.16695 105.60441 L 37.412703 105.60441 C 35.101138 105.60441 33.242932 103.74632 33.242932 101.45634 L 33.242932 45.416866 C 33.242932 43.126898 35.101138 41.268799 37.412703 41.268799 z M 15.657959 51.228398 L 16.370577 51.228398 C 17.687095 51.228398 18.747176 52.287962 18.747176 53.60448 L 18.747176 54.317615 C 18.747176 55.634129 17.687095 56.693697 16.370577 56.693697 L 15.657959 56.693697 C 14.341441 56.693697 13.28136 55.634129 13.28136 54.317615 L 13.28136 53.60448 C 13.28136 52.287962 14.341441 51.228398 15.657959 51.228398 z M 103.20972 58.169576 C 95.028851 58.169576 88.087646 64.367701 88.087646 73.498873 C 88.087646 82.630045 94.863636 88.70363 103.2924 88.70363 C 110.81034 88.70363 114.76734 84.464313 116.44871 80.707218 C 116.98511 79.508608 116.19116 78.164739 114.92632 77.804553 L 113.26802 77.332231 C 112.00318 76.972045 110.71499 77.744135 109.99535 78.838599 C 108.87517 80.542236 106.82055 82.175346 103.2924 82.175346 C 98.912753 82.175346 94.863977 78.994102 94.863977 73.498873 C 94.863977 67.342562 99.284555 64.532495 103.20972 64.532495 C 106.74236 64.532495 108.72876 66.137073 109.77676 67.798962 C 110.47494 68.90611 111.70528 69.665738 112.95951 69.27019 L 114.57337 68.761178 C 115.8276 68.36563 116.62535 66.989505 116.08955 65.790816 C 114.42173 62.059525 110.50485 58.169576 103.20972 58.169576 z M 40.722579 58.789693 A 2.38125 2.38125 0 0 0 38.341329 61.170943 L 38.341329 85.702779 A 2.38125 2.38125 0 0 0 40.722579 88.084029 L 42.488363 88.084029 A 2.38125 2.38125 0 0 0 44.869613 85.702779 L 44.869613 77.969918 A 0.79375 0.79375 0 0 1 45.663363 77.176168 L 46.389417 77.176168 A 1.2627025 1.2627025 0 0 1 47.527332 77.89137 L 51.398413 85.938424 A 3.7881076 3.7881076 0 0 0 54.812158 88.084029 L 57.238883 88.084029 A 1.4693729 1.4693729 0 0 0 58.551982 85.955477 L 53.670109 76.225838 C 57.264733 74.944995 59.454769 71.928742 59.454769 67.96226 C 59.454769 62.756253 55.735925 58.789693 49.951473 58.789693 L 40.722579 58.789693 z M 64.273596 58.789693 A 2.38125 2.38125 0 0 0 61.892346 61.170943 L 61.892346 62.647339 A 2.38125 2.38125 0 0 0 64.273596 65.028589 L 68.518298 65.028589 A 2.38125 2.38125 0 0 1 70.899548 67.409839 L 70.899548 85.702779 A 2.38125 2.38125 0 0 0 73.280798 88.084029 L 75.046582 88.084029 A 2.38125 2.38125 0 0 0 77.427832 85.702779 L 77.427832 67.409839 A 2.38125 2.38125 0 0 1 79.809082 65.028589 L 84.095125 65.028589 A 2.38125 2.38125 0 0 0 86.476375 62.647339 L 86.476375 61.170943 A 2.38125 2.38125 0 0 0 84.095125 58.789693 L 64.273596 58.789693 z M 15.657959 61.986914 L 16.370577 61.986914 C 17.687096 61.986914 18.747176 63.04648 18.747176 64.362996 L 18.747176 65.076131 C 18.747176 66.39265 17.687096 67.45273 16.370577 67.45273 L 15.657959 67.45273 C 14.34144 67.45273 13.28136 66.39265 13.28136 65.076131 L 13.28136 64.362996 C 13.28136 63.04648 14.34144 61.986914 15.657959 61.986914 z M 47.250863 64.45033 L 48.712272 64.45033 C 51.39791 64.45033 52.843803 65.813772 52.843803 68.003601 C 52.843803 70.069477 51.39791 71.556873 48.712272 71.556873 L 47.250863 71.556873 A 2.38125 2.38125 0 0 1 44.869613 69.175623 L 44.869613 66.83158 A 2.38125 2.38125 0 0 1 47.250863 64.45033 z M 15.657959 100.13859 L 16.370577 100.13859 C 17.687098 100.13859 18.747176 101.19867 18.747176 102.51519 L 18.747176 103.22781 C 18.747176 104.54433 17.687098 105.60441 16.370577 105.60441 L 15.657959 105.60441 C 14.341438 105.60441 13.28136 104.54433 13.28136 103.22781 L 13.28136 102.51519 C 13.28136 101.19867 14.341438 100.13859 15.657959 100.13859 z " />
    <rect
       style="opacity:0.25;fill:none;stroke-width:0.499999;stroke-linecap:round;stroke-linejoin:round"
       id="rect1692"
       width="135.46666"
       height="135.46666"
       x="0"
       y="0" />
  </g>
</svg>
