<?xml version="1.0" encoding="UTF-8" standalone="no"?>
<!-- Generator: Adobe Illustrator 27.5.0, SVG Export Plug-In . SVG Version: 6.00 Build 0)  -->

<svg
   version="1.1"
   id="Layer_1"
   x="0px"
   y="0px"
   viewBox="0 0 512 512"
   style="enable-background:new 0 0 512 512;"
   xml:space="preserve"
   sodipodi:docname="app_icon.svg"
   inkscape:version="1.2.2 (732a01da63, 2022-12-09)"
   inkscape:export-filename="..\app_icon.png"
   inkscape:export-xdpi="96"
   inkscape:export-ydpi="96"
   xmlns:inkscape="http://www.inkscape.org/namespaces/inkscape"
   xmlns:sodipodi="http://sodipodi.sourceforge.net/DTD/sodipodi-0.dtd"
   xmlns="http://www.w3.org/2000/svg"
   xmlns:svg="http://www.w3.org/2000/svg"><defs
   id="defs18"><filter
     style="color-interpolation-filters:sRGB;"
     inkscape:label="Drop Shadow"
     id="filter1166"
     x="-0.0625"
     y="-0.064377682"
     width="1.1640625"
     height="1.1689914"><feFlood
       flood-opacity="0.137255"
       flood-color="rgb(0,0,0)"
       result="flood"
       id="feFlood1156" /><feComposite
       in="flood"
       in2="SourceGraphic"
       operator="in"
       result="composite1"
       id="feComposite1158" /><feGaussianBlur
       in="composite1"
       stdDeviation="10"
       result="blur"
       id="feGaussianBlur1160" /><feOffset
       dx="15"
       dy="15"
       result="offset"
       id="feOffset1162" /><feComposite
       in="SourceGraphic"
       in2="offset"
       operator="over"
       result="composite2"
       id="feComposite1164" /></filter></defs><sodipodi:namedview
   id="namedview16"
   pagecolor="#505050"
   bordercolor="#eeeeee"
   borderopacity="1"
   inkscape:showpageshadow="0"
   inkscape:pageopacity="0"
   inkscape:pagecheckerboard="0"
   inkscape:deskcolor="#505050"
   showgrid="false"
   inkscape:zoom="1.179432"
   inkscape:cx="170.84495"
   inkscape:cy="243.33747"
   inkscape:window-width="1920"
   inkscape:window-height="1009"
   inkscape:window-x="1912"
   inkscape:window-y="-8"
   inkscape:window-maximized="1"
   inkscape:current-layer="Layer_1" />
<style
   type="text/css"
   id="style11">
	.st0{fill:#555555;}
</style>
<g
   id="g914"
   style="filter:url(#filter1166)"
   inkscape:export-filename="..\app-icon.png"
   inkscape:export-xdpi="302.381"
   inkscape:export-ydpi="302.381"><path
     d="m 64,346.7 v -97.6 c 0,-4.6 0.9,-9.1 2.7,-13.3 1.8,-4.3 4.4,-7.8 8,-10.7 l 160,-141.9 c 2.8,-2.8 6.1,-4.9 9.9,-6.1 3.7,-1.2 7.6,-1.9 11.5,-1.9 3.9,0 7.7,0.6 11.5,1.9 3.8,1.3 7,3.3 9.9,6.1 l 42.7,37.9 z"
     id="path354"
     style="fill:#ffffff" /><path
     d="M 362.7,448 V 273.1 L 271.5,192 336,134.9 437.3,225 c 3.6,3.2 6.2,6.8 8,10.9 1.8,4.1 2.7,8.4 2.7,13.1 v 167 c 0,8.9 -3.1,16.4 -9.3,22.7 -6.2,6.2 -13.8,9.3 -22.7,9.3 z"
     id="path352"
     style="fill:#ffffff" /><path
     d="M 170.7,448 V 362.7 H 341.4 V 448 Z"
     id="path350"
     style="fill:#61afef;fill-opacity:1" /><path
     d="M 96,448 C 87.1,448 79.6,444.9 73.3,438.7 67.1,432.5 64,424.9 64,416 v -40.5 l 85.3,-75.7 V 448 Z"
     id="path13"
     style="fill:#61afef;fill-opacity:1" /></g>
<rect
   style="opacity:0.25;fill:none;fill-opacity:1;stroke-width:1.88976;stroke-linecap:round;stroke-linejoin:round"
   id="rect1295"
   width="512"
   height="512"
   x="0"
   y="0" /></svg>
